<svg width="73" height="72" viewBox="0 0 73 72" fill="none" xmlns="http://www.w3.org/2000/svg">
<g clip-path="url(#clip0_3288_422)">
<g clip-path="url(#clip1_3288_422)">
<g clip-path="url(#clip2_3288_422)">
<g clip-path="url(#clip3_3288_422)">
<path d="M71.3006 3.14169e-08C71.3005 3.14169e-08 71.3002 3.14169e-08 71.3 3.14169e-08H1.7C1.03745 -0.000149969 0.50015 0.53685 0.5 1.1994C0.5 1.19955 0.5 1.19985 0.5 1.2V25.2H2.9V2.4H70.1V28.8H28.1V31.2H71.3C71.9626 31.2002 72.4999 30.6632 72.5 30.0006C72.5 30.0005 72.5 30.0002 72.5 30V1.2C72.5002 0.53745 71.9632 0.000150031 71.3006 3.14169e-08Z" fill="#FF7B52"/>
</g>
</g>
<g clip-path="url(#clip4_3288_422)">
<g clip-path="url(#clip5_3288_422)">
<path d="M64.1001 6H40.1001V8.4H64.1001V6Z" fill="#FF7B52"/>
</g>
</g>
<g clip-path="url(#clip6_3288_422)">
<g clip-path="url(#clip7_3288_422)">
<path d="M67.7002 13.2002H43.7002V15.6002H67.7002V13.2002Z" fill="#FF7B52"/>
</g>
</g>
<g clip-path="url(#clip8_3288_422)">
<g clip-path="url(#clip9_3288_422)">
<path d="M62.8999 20.4004H38.8999V22.8004H62.8999V20.4004Z" fill="#FF7B52"/>
</g>
</g>
<g clip-path="url(#clip10_3288_422)">
<g clip-path="url(#clip11_3288_422)">
<path d="M38.8043 10.3459C37.9827 8.37115 35.7159 7.43635 33.7413 8.2579C33.7076 8.272 33.674 8.2864 33.6407 8.3014L23.9105 13.3489C24.2942 12.5536 24.4956 11.6827 24.5 10.7998C24.5 7.48615 21.8136 4.7998 18.5 4.7998C15.1863 4.7998 12.5 7.48615 12.5 10.7998C12.5045 12.1023 12.9369 13.3672 13.7307 14.3998H13.6808C10.2746 14.4226 7.23395 16.5402 6.0314 19.7272L2.828 30.7686C2.0654 32.7495 3.053 34.9737 5.03405 35.7363C5.93735 36.084 6.9386 36.0781 7.83785 35.7198C8.87105 35.3035 9.67505 34.4629 10.0451 33.4123L11.3 29.4186V46.786C10.2674 45.9924 9.00245 45.5599 7.7 45.5553C4.3913 45.5503 1.70495 48.2286 1.7 51.5374C1.6976 53.1579 2.3516 54.7101 3.51305 55.8402C1.66985 56.7819 0.5072 58.6743 0.5 60.7439V70.7998C0.49985 71.4623 1.03685 71.9996 1.6994 71.9998C1.69955 71.9998 1.69985 71.9998 1.7 71.9998H13.7C14.3625 72 14.8998 71.463 14.9 70.8004C14.9 70.8002 14.9 70.7999 14.9 70.7998V60.7439C14.8941 59.0431 14.1039 57.4402 12.7586 56.3998H21.8415C20.496 57.4402 19.7059 59.0431 19.7001 60.7439V70.7998C19.7 71.4623 20.237 71.9996 20.8995 71.9998C20.8997 71.9998 20.9 71.9998 20.9002 71.9998H32.9002C33.5627 72 34.1 71.463 34.1001 70.8004C34.1001 70.8002 34.1001 70.7999 34.1001 70.7998V60.7439C34.0929 58.6743 32.9303 56.7819 31.0871 55.8402C33.4563 53.5276 33.5024 49.7322 31.1898 47.3629C29.7657 45.9039 27.6977 45.2686 25.7001 45.6766V21.1287L36.7163 15.4087C38.6909 14.5873 39.6257 12.3205 38.8043 10.3459ZM18.5 7.1998C20.4882 7.1998 22.1 8.81155 22.1 10.7998C22.1 12.7881 20.4882 14.3998 18.5 14.3998C16.5126 14.3977 14.9021 12.7872 14.9 10.7998C14.9 8.81155 16.5117 7.1998 18.5 7.1998ZM7.7 47.9553C9.68825 47.9553 11.3 49.567 11.3 51.5553C11.3 53.5435 9.68825 55.1553 7.7 55.1553C5.71175 55.1553 4.1 53.5435 4.1 51.5553C4.1021 49.5679 5.71265 47.9575 7.7 47.9553ZM12.5 69.5998H2.9V60.7439C2.9024 59.0083 4.30895 57.6019 6.04475 57.5998H9.35525C11.0909 57.6019 12.4976 59.0083 12.5 60.7439V69.5998ZM31.7 60.7439V69.5998H22.1V60.7439C22.1024 59.0083 23.5089 57.6019 25.2447 57.5998H28.5552C30.291 57.6019 31.6976 59.0083 31.7 60.7439ZM26.9 47.9553C28.8873 47.9574 30.4979 49.5679 30.5 51.5553C30.5 53.5435 28.8882 55.1553 26.9 55.1553C24.9117 55.1553 23.3 53.5435 23.3 51.5553C23.3 49.567 24.9117 47.9553 26.9 47.9553ZM36.6084 12.3478C36.4478 12.76 36.118 13.0836 35.7026 13.2361L23.9475 19.3345C23.5497 19.5409 23.3 19.9518 23.3 20.3998V46.786C21.0522 48.448 20.2736 51.456 21.4328 53.9998H19.7V33.5998H17.3V53.9998H13.1672C13.5086 53.2453 13.6884 52.4278 13.6955 51.5998H13.7V21.5998C13.6998 20.937 13.1624 20.3998 12.4997 20.4C11.9757 20.4001 11.5124 20.7402 11.3552 21.2401L7.772 32.6424C7.5005 33.3912 6.67325 33.7782 5.92445 33.5065C5.87195 33.4875 5.8205 33.4654 5.7704 33.4404C5.07815 33.0826 4.7843 32.2474 5.1002 31.5349L8.30345 20.4936C9.1673 18.2751 11.2998 16.8102 13.6806 16.7998H22.1774C22.3697 16.8001 22.5593 16.7538 22.73 16.6651L34.6568 10.4742C35.3723 10.1757 36.197 10.4811 36.5453 11.1738C36.7299 11.5389 36.7529 11.9649 36.6084 12.3478Z" fill="#FF7B52"/>
</g>
</g>
<g clip-path="url(#clip12_3288_422)">
<g clip-path="url(#clip13_3288_422)">
<path d="M50.2869 55.8406C52.6603 53.5282 52.7098 49.7294 50.3974 47.3559C48.085 44.9825 44.2863 44.933 41.9128 47.2454C39.5394 49.5578 39.4899 53.3566 41.8023 55.73C41.8387 55.7674 41.8756 55.8043 41.913 55.8406C40.0699 56.7823 38.9071 58.6746 38.8999 60.7443V70.8002C38.8998 71.4627 39.4368 72 40.0993 72.0002C40.0995 72.0002 40.0998 72.0002 40.0999 72.0002H52.0999C52.7625 72.0003 53.2998 71.4633 53.2999 70.8008C53.2999 70.8006 53.2999 70.8003 53.2999 70.8002V60.7443C53.2927 58.6746 52.1301 56.7823 50.2869 55.8406ZM46.0999 47.9557C48.0882 47.9557 49.6999 49.5674 49.6999 51.5557C49.6999 53.5439 48.0882 55.1557 46.0999 55.1557C44.1117 55.1557 42.4999 53.5439 42.4999 51.5557C42.502 49.5683 44.1126 47.9579 46.0999 47.9557ZM50.8999 69.6002H41.2999V60.7443C41.3023 59.0087 42.7089 57.6023 44.4447 57.6002H47.7552C49.4908 57.6023 50.8975 59.0087 50.8999 60.7443V69.6002Z" fill="#FF7B52"/>
</g>
</g>
<g clip-path="url(#clip14_3288_422)">
<g clip-path="url(#clip15_3288_422)">
<path d="M69.487 55.8406C71.8605 53.5282 71.91 49.7294 69.5976 47.3559C67.2852 44.9825 63.4864 44.933 61.113 47.2454C58.7395 49.5578 58.69 53.3566 61.0024 55.73C61.0389 55.7674 61.0758 55.8043 61.1131 55.8406C59.2701 56.7823 58.1073 58.6746 58.1001 60.7443V70.8002C58.0999 71.4627 58.6369 72 59.2995 72.0002C59.2996 72.0002 59.2999 72.0002 59.3001 72.0002H71.3001C71.9626 72.0003 72.4999 71.4633 72.5001 70.8008C72.5001 70.8006 72.5001 70.8003 72.5001 70.8002V60.7443C72.4929 58.6746 71.3302 56.7823 69.487 55.8406ZM65.3001 47.9557C67.2883 47.9557 68.9001 49.5674 68.9001 51.5557C68.9001 53.5439 67.2883 55.1557 65.3001 55.1557C63.3118 55.1557 61.7001 53.5439 61.7001 51.5557C61.7022 49.5683 63.3127 47.9579 65.3001 47.9557ZM70.1001 69.6002H60.5001V60.7443C60.5025 59.0087 61.909 57.6023 63.6448 57.6002H66.9553C68.691 57.6023 70.0977 59.0087 70.1001 60.7443V69.6002Z" fill="#FF7B52"/>
</g>
</g>
</g>
</g>
<defs>
<clipPath id="clip0_3288_422">
<rect width="72" height="72" fill="white" transform="translate(0.5)"/>
</clipPath>
<clipPath id="clip1_3288_422">
<rect width="72" height="72" fill="white" transform="translate(0.5)"/>
</clipPath>
<clipPath id="clip2_3288_422">
<rect width="72" height="31.2" fill="white" transform="translate(0.5)"/>
</clipPath>
<clipPath id="clip3_3288_422">
<rect width="72" height="31.2" fill="white" transform="translate(0.5)"/>
</clipPath>
<clipPath id="clip4_3288_422">
<rect width="24" height="2.4" fill="white" transform="translate(40.1001 6)"/>
</clipPath>
<clipPath id="clip5_3288_422">
<rect width="24" height="2.4" fill="white" transform="translate(40.1001 6)"/>
</clipPath>
<clipPath id="clip6_3288_422">
<rect width="24" height="2.4" fill="white" transform="translate(43.7002 13.2002)"/>
</clipPath>
<clipPath id="clip7_3288_422">
<rect width="24" height="2.4" fill="white" transform="translate(43.7002 13.2002)"/>
</clipPath>
<clipPath id="clip8_3288_422">
<rect width="24" height="2.4" fill="white" transform="translate(38.8999 20.4004)"/>
</clipPath>
<clipPath id="clip9_3288_422">
<rect width="24" height="2.4" fill="white" transform="translate(38.8999 20.4004)"/>
</clipPath>
<clipPath id="clip10_3288_422">
<rect width="38.6023" height="67.2" fill="white" transform="translate(0.5 4.7998)"/>
</clipPath>
<clipPath id="clip11_3288_422">
<rect width="38.6023" height="67.2" fill="white" transform="translate(0.5 4.7998)"/>
</clipPath>
<clipPath id="clip12_3288_422">
<rect width="14.4" height="26.4572" fill="white" transform="translate(38.8999 45.543)"/>
</clipPath>
<clipPath id="clip13_3288_422">
<rect width="14.4" height="26.4572" fill="white" transform="translate(38.8999 45.543)"/>
</clipPath>
<clipPath id="clip14_3288_422">
<rect width="14.4" height="26.4572" fill="white" transform="translate(58.1001 45.543)"/>
</clipPath>
<clipPath id="clip15_3288_422">
<rect width="14.4" height="26.4572" fill="white" transform="translate(58.1001 45.543)"/>
</clipPath>
</defs>
</svg>
